<?xml version="1.0" encoding="UTF-8"?>
<svg version="1.1" xmlns="http://www.w3.org/2000/svg" width="256" height="256">
<path d="M0 0 C0.83949188 -0.00807175 1.67898376 -0.01614349 2.54391479 -0.02445984 C4.32759553 -0.03828642 6.11130257 -0.04901495 7.89501953 -0.05688477 C9.68481428 -0.06828166 11.47457848 -0.08853232 13.26416016 -0.1184082 C29.56964219 -0.39011564 44.46857793 1.52560464 59.4921875 8.23828125 C61.07515776 8.82259913 62.65850557 9.40589499 64.2421875 9.98828125 C71.03030593 12.67750389 77.22952179 16.52038748 83.4921875 20.23828125 C83.4921875 20.89828125 83.4921875 21.55828125 83.4921875 22.23828125 C84.6678125 22.70234375 84.6678125 22.70234375 85.8671875 23.17578125 C88.4921875 24.23828125 88.4921875 24.23828125 90.4921875 25.23828125 C90.4921875 25.89828125 90.4921875 26.55828125 90.4921875 27.23828125 C91.2140625 27.46515625 91.9359375 27.69203125 92.6796875 27.92578125 C96.10457161 29.5240605 97.91234909 31.47416866 100.4921875 34.23828125 C101.65650469 35.38650189 102.82330959 36.53220372 103.9921875 37.67578125 C112.4921875 46.19438081 112.4921875 46.19438081 112.4921875 49.23828125 C113.1521875 49.23828125 113.8121875 49.23828125 114.4921875 49.23828125 C117.4921875 53.62289663 117.4921875 53.62289663 117.4921875 56.23828125 C118.1521875 56.23828125 118.8121875 56.23828125 119.4921875 56.23828125 C120.66492734 58.33987255 121.83374881 60.44341366 122.99609375 62.55078125 C123.98714432 64.33104963 124.99483388 66.10216455 126.01953125 67.86328125 C132.54591543 79.28860521 135.45041787 91.55710081 138.4921875 104.23828125 C138.67069748 104.89061737 138.84920746 105.54295349 139.03312683 106.21505737 C139.81839757 109.675991 139.69775013 113.21225968 139.73046875 116.74609375 C139.7385405 117.58558563 139.74661224 118.42507751 139.75492859 119.29000854 C139.76875517 121.07368928 139.7794837 122.85739632 139.78735352 124.64111328 C139.79875041 126.43090803 139.81900107 128.22067223 139.84887695 130.01025391 C140.12058439 146.31573594 138.20486411 161.21467168 131.4921875 176.23828125 C130.90786962 177.82125151 130.32457376 179.40459932 129.7421875 180.98828125 C127.05296486 187.77639968 123.21008127 193.97561554 119.4921875 200.23828125 C118.8321875 200.23828125 118.1721875 200.23828125 117.4921875 200.23828125 C117.1828125 201.02203125 116.8734375 201.80578125 116.5546875 202.61328125 C115.4921875 205.23828125 115.4921875 205.23828125 114.4921875 207.23828125 C113.8321875 207.23828125 113.1721875 207.23828125 112.4921875 207.23828125 C112.151875 208.32109375 112.151875 208.32109375 111.8046875 209.42578125 C110.20640825 212.85066536 108.25630009 214.65844284 105.4921875 217.23828125 C104.34396686 218.40259844 103.19826503 219.56940334 102.0546875 220.73828125 C93.53608794 229.23828125 93.53608794 229.23828125 90.4921875 229.23828125 C90.4921875 229.89828125 90.4921875 230.55828125 90.4921875 231.23828125 C86.10757212 234.23828125 86.10757212 234.23828125 83.4921875 234.23828125 C83.4921875 234.89828125 83.4921875 235.55828125 83.4921875 236.23828125 C81.3905962 237.41102109 79.28705509 238.57984256 77.1796875 239.7421875 C75.39941912 240.73323807 73.6283042 241.74092763 71.8671875 242.765625 C60.44186354 249.29200918 48.17336794 252.19651162 35.4921875 255.23828125 C34.83985138 255.41679123 34.18751526 255.59530121 33.51541138 255.77922058 C30.05447775 256.56449132 26.51820907 256.44384388 22.984375 256.4765625 C22.14488312 256.48463425 21.30539124 256.49270599 20.44046021 256.50102234 C18.65677947 256.51484892 16.87307243 256.52557745 15.08935547 256.53344727 C13.29956072 256.54484416 11.50979652 256.56509482 9.72021484 256.5949707 C-6.58526719 256.86667814 -21.48420293 254.95095786 -36.5078125 248.23828125 C-38.09078276 247.65396337 -39.67413057 247.07066751 -41.2578125 246.48828125 C-48.04593093 243.79905861 -54.24514679 239.95617502 -60.5078125 236.23828125 C-60.5078125 235.57828125 -60.5078125 234.91828125 -60.5078125 234.23828125 C-61.2915625 233.92890625 -62.0753125 233.61953125 -62.8828125 233.30078125 C-65.5078125 232.23828125 -65.5078125 232.23828125 -67.5078125 231.23828125 C-67.5078125 230.57828125 -67.5078125 229.91828125 -67.5078125 229.23828125 C-68.2296875 229.01140625 -68.9515625 228.78453125 -69.6953125 228.55078125 C-73.12019661 226.952502 -74.92797409 225.00239384 -77.5078125 222.23828125 C-78.67212969 221.09006061 -79.83893459 219.94435878 -81.0078125 218.80078125 C-89.5078125 210.28218169 -89.5078125 210.28218169 -89.5078125 207.23828125 C-90.1678125 207.23828125 -90.8278125 207.23828125 -91.5078125 207.23828125 C-94.5078125 202.85366587 -94.5078125 202.85366587 -94.5078125 200.23828125 C-95.1678125 200.23828125 -95.8278125 200.23828125 -96.5078125 200.23828125 C-97.68055234 198.13668995 -98.84937381 196.03314884 -100.01171875 193.92578125 C-101.00276932 192.14551287 -102.01045888 190.37439795 -103.03515625 188.61328125 C-109.56154043 177.18795729 -112.46604287 164.91946169 -115.5078125 152.23828125 C-115.68632248 151.58594513 -115.86483246 150.93360901 -116.04875183 150.26150513 C-116.83402257 146.8005715 -116.71337513 143.26430282 -116.74609375 139.73046875 C-116.7541655 138.89097687 -116.76223724 138.05148499 -116.77055359 137.18655396 C-116.78438017 135.40287322 -116.7951087 133.61916618 -116.80297852 131.83544922 C-116.81437541 130.04565447 -116.83462607 128.25589027 -116.86450195 126.46630859 C-117.13620939 110.16082656 -115.22048911 95.26189082 -108.5078125 80.23828125 C-107.92349462 78.65531099 -107.34019876 77.07196318 -106.7578125 75.48828125 C-104.06858986 68.70016282 -100.22570627 62.50094696 -96.5078125 56.23828125 C-95.8478125 56.23828125 -95.1878125 56.23828125 -94.5078125 56.23828125 C-94.04375 55.06265625 -94.04375 55.06265625 -93.5703125 53.86328125 C-92.5078125 51.23828125 -92.5078125 51.23828125 -91.5078125 49.23828125 C-90.8478125 49.23828125 -90.1878125 49.23828125 -89.5078125 49.23828125 C-89.1675 48.15546875 -89.1675 48.15546875 -88.8203125 47.05078125 C-87.22203325 43.62589714 -85.27192509 41.81811966 -82.5078125 39.23828125 C-81.35959186 38.07396406 -80.21389003 36.90715916 -79.0703125 35.73828125 C-70.55171294 27.23828125 -70.55171294 27.23828125 -67.5078125 27.23828125 C-67.5078125 26.57828125 -67.5078125 25.91828125 -67.5078125 25.23828125 C-63.12319712 22.23828125 -63.12319712 22.23828125 -60.5078125 22.23828125 C-60.5078125 21.57828125 -60.5078125 20.91828125 -60.5078125 20.23828125 C-58.4062212 19.06554141 -56.30268009 17.89671994 -54.1953125 16.734375 C-52.41504412 15.74332443 -50.6439292 14.73563487 -48.8828125 13.7109375 C-37.45748854 7.18455332 -25.18899294 4.28005088 -12.5078125 1.23828125 C-11.52930832 0.97051628 -11.52930832 0.97051628 -10.53103638 0.69734192 C-7.07010275 -0.08792882 -3.53383407 0.03271862 0 0 Z " fill="#FEFEFE" transform="translate(116.5078125,-0.23828125)"/>
<path d="M0 0 C10.25650317 0.21489816 17.99653259 5.64581021 25.3125 12.3125 C26.13621094 13.04339844 26.95992188 13.77429688 27.80859375 14.52734375 C43.14105337 28.90301962 52.21605928 48.84164076 59.3125 68.3125 C59.6425 69.19679688 59.9725 70.08109375 60.3125 70.9921875 C62.04416161 76.33702766 62.3964447 81.22791076 62.4597168 86.80151367 C62.32180438 94.66059952 62.32180438 94.66059952 64.83203125 101.88671875 C66.79710835 103.72333732 66.79710835 103.72333732 68.98828125 105.359375 C77.27485801 112.32288488 83.01260565 124.96297542 85.3125 135.3125 C84.99476035 138.7354226 84.7631063 139.8618937 82.3125 142.3125 C79.47950745 142.56418228 79.47950745 142.56418228 75.78344727 142.56646729 C75.10527986 142.56958727 74.42711245 142.57270725 73.72839451 142.57592177 C71.44514458 142.58392943 69.16215838 142.57756752 66.87890625 142.57128906 C65.24640751 142.5739977 63.61390999 142.57755792 61.98141479 142.58190918 C57.53936154 142.59105059 53.09740086 142.58748174 48.65534592 142.58115101 C44.01445001 142.57610006 39.37356222 142.58077993 34.73266602 142.58392334 C26.93797375 142.58756563 19.14331934 142.582757 11.34863281 142.57324219 C2.3270327 142.56235713 -6.69447702 142.56588252 -15.71607494 142.576895 C-23.45112223 142.58596039 -31.18614224 142.58725682 -38.92119312 142.58201766 C-43.5456929 142.57889383 -48.17015014 142.57849989 -52.79464722 142.58509064 C-57.14155195 142.59085262 -61.48833973 142.58688836 -65.83523178 142.57530212 C-67.43404826 142.57264937 -69.03287453 142.57343106 -70.63168716 142.57782745 C-72.80740838 142.58326026 -74.98275047 142.57647681 -77.15844727 142.56646729 C-78.37814713 142.56571323 -79.59784698 142.56495918 -80.85450745 142.56418228 C-83.6875 142.3125 -83.6875 142.3125 -85.6875 140.3125 C-87.24409412 130.30582352 -80.99316771 120.06636001 -75.734375 111.96875 C-73.48025441 109.04355534 -70.94133047 106.71157265 -68.25 104.1875 C-64.53164964 100.26226398 -63.17177119 97.71708306 -63.20385742 92.24291992 C-63.27653805 90.78424422 -63.35880172 89.32601576 -63.45043945 87.8684082 C-64.87639412 64.71141823 -48.10782122 35.84849564 -33.11523438 18.87548828 C-23.58523683 8.51536201 -14.29399987 1.21135592 0 0 Z " fill="#323B44" transform="translate(128.6875,39.6875)"/>
<path d="M0 0 C20.87241472 10.31788301 35.35160142 36.78941626 43.04296875 57.7578125 C45.24349574 64.73276807 46.82378364 71.40557416 46.875 78.75 C46.88917969 79.68199219 46.90335937 80.61398438 46.91796875 81.57421875 C46.6875 84.0625 46.6875 84.0625 44.6875 87.0625 C44.0275 87.0625 43.3675 87.0625 42.6875 87.0625 C42.67332031 86.45664063 42.65914063 85.85078125 42.64453125 85.2265625 C42.17622569 76.99957291 39.78332624 69.67780956 33.75 63.8125 C18.51023504 52.17606341 -1.49123645 51.87479152 -19.7734375 53.33984375 C-31.9023203 55.0111465 -42.21391428 59.70379278 -50.3125 69.0625 C-52.72592821 73.15315011 -53.82339387 76.75330375 -54.5 81.4375 C-54.65855469 82.49710937 -54.81710938 83.55671875 -54.98046875 84.6484375 C-55.09003906 85.44507813 -55.19960937 86.24171875 -55.3125 87.0625 C-56.3025 86.7325 -57.2925 86.4025 -58.3125 86.0625 C-61.90468941 78.87812117 -59.21716197 69.46785815 -56.8125 62.25 C-53.74962868 53.46647847 -49.77309949 45.21212315 -45.3125 37.0625 C-44.82007812 36.15113281 -44.32765625 35.23976562 -43.8203125 34.30078125 C-35.31852595 19.38663026 -19.70610594 -5.5771998 0 0 Z " fill="#FBFBFB" transform="translate(134.3125,50.9375)"/>
<path d="M0 0 C3.07586141 0.69975847 6.03371782 1.66690262 9.02490234 2.66210938 C16.08200456 4.98598086 23.06519465 6.67193919 30.375 8 C38.97585452 9.60155521 46.51549259 11.35710589 52.75 17.875 C54.83438489 20.29613764 54.83438489 20.29613764 57.875 20.1875 C60.86681807 19.05060913 61.857178 18.32203389 64.0625 16.1875 C71.08479675 9.76317175 81.99850533 8.70158863 91.03222656 6.50610352 C96.50402749 5.16594908 101.86756693 3.5600009 107.23046875 1.83203125 C109.8099002 1.05711038 112.35151673 0.47934158 115 0 C116.7744606 2.22636058 118.54462467 4.45591967 120.3125 6.6875 C120.81201172 7.31333984 121.31152344 7.93917969 121.82617188 8.58398438 C126.40114407 14.37086973 128.91432615 18.70014151 131 26 C82.49 26 33.98 26 -16 26 C-12.38565802 15.15697405 -7.64035521 8.29588865 0 0 Z " fill="#FBFCFC" transform="translate(71,146)"/>
<path d="M0 0 C1.65322266 0.01740234 1.65322266 0.01740234 3.33984375 0.03515625 C4.99693359 0.04869141 4.99693359 0.04869141 6.6875 0.0625 C7.54214844 0.07410156 8.39679688 0.08570312 9.27734375 0.09765625 C9.83984375 2.03515625 9.83984375 2.03515625 10.27734375 4.09765625 C9.94734375 4.42765625 9.61734375 4.75765625 9.27734375 5.09765625 C6.96734375 5.09765625 4.65734375 5.09765625 2.27734375 5.09765625 C2.27734375 10.04765625 2.27734375 14.99765625 2.27734375 20.09765625 C4.58734375 20.09765625 6.89734375 20.09765625 9.27734375 20.09765625 C9.60734375 21.08765625 9.93734375 22.07765625 10.27734375 23.09765625 C8.27734375 25.09765625 8.27734375 25.09765625 5.96484375 25.36328125 C5.07796875 25.358125 4.19109375 25.35296875 3.27734375 25.34765625 C1.94703125 25.35539062 1.94703125 25.35539062 0.58984375 25.36328125 C-1.72265625 25.09765625 -1.72265625 25.09765625 -3.72265625 23.09765625 C-3.96557617 20.86694336 -3.96557617 20.86694336 -3.953125 18.125 C-3.95119141 17.14337891 -3.94925781 16.16175781 -3.94726562 15.15039062 C-3.93501953 14.12236328 -3.92277344 13.09433594 -3.91015625 12.03515625 C-3.90951172 11.00326172 -3.90886719 9.97136719 -3.90820312 8.90820312 C-3.85631031 0.13831816 -3.85631031 0.13831816 0 0 Z " fill="#ECEDEE" transform="translate(109.72265625,117.90234375)"/>
<path d="M0 0 C1.97909398 -0.02686553 3.95828971 -0.04633375 5.9375 -0.0625 C7.03964844 -0.07410156 8.14179688 -0.08570312 9.27734375 -0.09765625 C12 0 12 0 13 1 C13.09932153 2.69558726 13.13080007 4.39525747 13.1328125 6.09375 C13.13474609 7.63869141 13.13474609 7.63869141 13.13671875 9.21484375 C13.13285156 10.29894531 13.12898437 11.38304687 13.125 12.5 C13.12886719 13.58410156 13.13273438 14.66820312 13.13671875 15.78515625 C13.13542969 16.81511719 13.13414062 17.84507812 13.1328125 18.90625 C13.13168457 19.85822266 13.13055664 20.81019531 13.12939453 21.79101562 C13 24 13 24 12 25 C10.14712498 25.07226502 8.29166122 25.0838122 6.4375 25.0625 C5.42558594 25.05347656 4.41367188 25.04445312 3.37109375 25.03515625 C2.58863281 25.02355469 1.80617187 25.01195312 1 25 C0.67 23.35 0.34 21.7 0 20 C2.64 20 5.28 20 8 20 C8 15.05 8 10.1 8 5 C5.69 5 3.38 5 1 5 C0.67 3.35 0.34 1.7 0 0 Z " fill="#F8F9F9" transform="translate(137,118)"/>
<path d="M0 0 C1.32 0 2.64 0 4 0 C3.37764885 7.05047122 1.57622359 13.54130316 -0.4375 20.3125 C-0.90639648 21.93768555 -0.90639648 21.93768555 -1.38476562 23.59570312 C-3.7413233 31.61198496 -3.7413233 31.61198496 -6 35 C-7.32 34.67 -8.64 34.34 -10 34 C-8.78226465 26.20992133 -6.89412222 18.86136626 -4.4375 11.375 C-4.12103516 10.38371094 -3.80457031 9.39242187 -3.47851562 8.37109375 C-1.1437595 1.1437595 -1.1437595 1.1437595 0 0 Z " fill="#EEEFEF" transform="translate(131,113)"/>
</svg>
