<svg width="388" height="321" viewBox="0 0 388 321" fill="none" xmlns="http://www.w3.org/2000/svg">
<path d="M194 320.56C301.082 320.56 387.89 315.492 387.89 309.24C387.89 302.988 301.082 297.92 194 297.92C86.9175 297.92 0.109985 302.988 0.109985 309.24C0.109985 315.492 86.9175 320.56 194 320.56Z" fill="#F5F5F5"/>
<path d="M363.26 144.09H23.51V156.28H363.26V144.09Z" fill="#407BFF"/>
<path opacity="0.3" d="M114.44 144.09H23.51V156.28H114.44V144.09Z" fill="white"/>
<path d="M115.89 156.28H107.98L112.12 309.06H115.89H119.66L123.81 156.28H115.89Z" fill="#407BFF"/>
<path opacity="0.3" d="M112.12 309.06H115.89V159.56L108.11 160.98L112.12 309.06Z" fill="white"/>
<path d="M40.92 156.28H33.01L37.15 309.06H40.92H44.69L48.83 156.28H40.92Z" fill="#407BFF"/>
<path opacity="0.3" d="M37.15 309.06H40.92V159.56L33.13 160.98L37.15 309.06Z" fill="white"/>
<path d="M345.85 156.28H337.94L342.08 309.06H345.85H349.62L353.77 156.28H345.85Z" fill="#407BFF"/>
<path opacity="0.3" d="M342.08 309.06H345.85V159.56L338.07 160.98L342.08 309.06Z" fill="white"/>
<path d="M270.88 156.28H262.97L267.11 309.06H270.88H274.65L278.79 156.28H270.88Z" fill="#407BFF"/>
<path opacity="0.3" d="M267.11 309.06H270.88V159.56L263.1 160.98L267.11 309.06Z" fill="white"/>
<path d="M184.78 78.8304H104C103.344 78.8045 102.692 78.9339 102.096 79.2083C101.5 79.4826 100.977 79.894 100.571 80.4088C100.164 80.9237 99.8851 81.5274 99.7564 82.1707C99.6276 82.814 99.6528 83.4787 99.83 84.1104L110.59 135.46C110.936 136.913 111.746 138.213 112.898 139.164C114.049 140.115 115.478 140.665 116.97 140.73H197.81C198.464 140.756 199.116 140.626 199.711 140.353C200.306 140.079 200.828 139.668 201.234 139.155C201.64 138.641 201.92 138.039 202.049 137.397C202.179 136.755 202.155 136.091 201.98 135.46L191.21 84.1104C190.863 82.6482 190.047 81.34 188.885 80.3863C187.724 79.4327 186.282 78.8861 184.78 78.8304Z" fill="#263238"/>
<path d="M117.67 137.8C116.662 137.732 115.702 137.347 114.926 136.7C114.15 136.054 113.599 135.179 113.35 134.2L102.59 82.8497C102.498 82.5099 102.483 82.1538 102.547 81.8076C102.611 81.4614 102.752 81.1341 102.96 80.8497C103.175 80.6062 103.443 80.4142 103.742 80.2879C104.041 80.1615 104.365 80.1041 104.69 80.1197H185.53C186.538 80.1877 187.498 80.5725 188.274 81.2191C189.05 81.8656 189.601 82.7408 189.85 83.7197L200.61 135.07C200.702 135.41 200.717 135.766 200.653 136.112C200.589 136.458 200.448 136.785 200.24 137.07C200.026 137.315 199.759 137.508 199.459 137.635C199.16 137.761 198.835 137.818 198.51 137.8H117.67Z" fill="white"/>
<path opacity="0.4" d="M178.66 133.69L168.46 85.0004C168.403 84.7121 168.41 84.4147 168.48 84.1295C168.551 83.8442 168.684 83.578 168.869 83.3498C169.054 83.1216 169.287 82.937 169.552 82.8092C169.817 82.6814 170.106 82.6135 170.4 82.6104H183.52C183.975 82.6139 184.415 82.7723 184.768 83.0595C185.12 83.3468 185.365 83.7456 185.46 84.1904L195.66 132.84C195.717 133.129 195.71 133.426 195.64 133.711C195.569 133.997 195.437 134.263 195.251 134.491C195.066 134.719 194.833 134.904 194.568 135.031C194.304 135.159 194.014 135.227 193.72 135.23H180.6C180.151 135.229 179.715 135.076 179.363 134.797C179.011 134.517 178.763 134.128 178.66 133.69Z" fill="#407BFF"/>
<path d="M109.32 86.8698L108.88 84.7598H125.08L125.52 86.8698H109.32Z" fill="#407BFF"/>
<path d="M116.8 92.11L116.36 90H144.75L145.2 92.11H116.8Z" fill="#EBEBEB"/>
<path d="M118.3 97.3395L117.85 95.2295H149.68L150.12 97.3395H118.3Z" fill="#EBEBEB"/>
<path d="M119.79 102.58L119.35 100.47H144.97L145.42 102.58H119.79Z" fill="#EBEBEB"/>
<path d="M114.25 111.07L113.8 108.96H124.05L124.49 111.07H114.25Z" fill="#407BFF"/>
<path d="M121.72 116.299L121.28 114.189H133.76L134.21 116.299H121.72Z" fill="#EBEBEB"/>
<path d="M137.2 116.299L136.75 114.189H149.24L149.68 116.299H137.2Z" fill="#EBEBEB"/>
<path d="M123.22 121.54L122.78 119.43H164.98L165.42 121.54H123.22Z" fill="#EBEBEB"/>
<path d="M124.71 126.77L124.27 124.66H156.45L156.89 126.77H124.71Z" fill="#EBEBEB"/>
<path d="M222.52 140.42H116.16C113.26 140.42 111.38 142.07 111.99 144.09H228.9C228.3 142.07 225.42 140.42 222.52 140.42Z" fill="#263238"/>
<path opacity="0.1" d="M81.21 65.8496L71 17.1896C70.9444 16.902 70.9525 16.6058 71.0239 16.3217C71.0954 16.0377 71.2283 15.7728 71.4133 15.5458C71.5984 15.3188 71.831 15.1352 72.0948 15.008C72.3586 14.8807 72.6472 14.813 72.94 14.8096H155.54C155.993 14.8126 156.432 14.9696 156.785 15.2549C157.137 15.5401 157.383 15.9367 157.48 16.3796L167.69 64.9996C167.747 65.2878 167.74 65.5852 167.67 65.8705C167.599 66.1558 167.466 66.422 167.281 66.6501C167.096 66.8783 166.863 67.0629 166.598 67.1907C166.333 67.3185 166.044 67.3864 165.75 67.3896H83.15C82.7007 67.3881 82.2649 67.2354 81.9129 66.956C81.561 66.6767 81.3134 66.2869 81.21 65.8496Z" fill="#407BFF"/>
<path d="M110.57 16.41H93.23L92.84 14.54H110.18L110.57 16.41Z" fill="#407BFF"/>
<path opacity="0.4" d="M107.75 19.3895H100.79L100.4 17.5195H107.36L107.75 19.3895Z" fill="#407BFF"/>
<path opacity="0.4" d="M119.33 19.3895H108.61L108.22 17.5195H118.94L119.33 19.3895Z" fill="#407BFF"/>
<path opacity="0.4" d="M124 22.3602H101.41L101.02 20.4902H123.62L124 22.3602Z" fill="#407BFF"/>
<path opacity="0.4" d="M121.13 25.3397H102.03L101.64 23.4697H120.74L121.13 25.3397Z" fill="#407BFF"/>
<path opacity="0.4" d="M133.8 56.9502H121.64L122.03 58.8102H134.19L133.8 56.9502Z" fill="#407BFF"/>
<path d="M118.64 52.87H100.83L100.44 51H118.25L118.64 52.87Z" fill="#407BFF"/>
<path opacity="0.4" d="M125.8 59.9199H109.24L109.63 61.7899H126.19L125.8 59.9199Z" fill="#407BFF"/>
<path opacity="0.4" d="M120.78 56.9502H108.62L109.01 58.8102H121.17L120.78 56.9502Z" fill="#407BFF"/>
<path opacity="0.4" d="M132.32 53.9697H108L108.39 55.8397H132.71L132.32 53.9697Z" fill="#407BFF"/>
<path d="M109.96 2.52992H90.34L89.95 0.669922H109.57L109.96 2.52992Z" fill="#407BFF"/>
<path opacity="0.4" d="M119.65 9.58984H98.01L98.4 11.4598H120.03L119.65 9.58984Z" fill="#407BFF"/>
<path opacity="0.4" d="M115.32 6.62012H97.39L97.78 8.48012H115.71L115.32 6.62012Z" fill="#407BFF"/>
<path opacity="0.4" d="M116.51 3.63965H96.77L97.16 5.50965H116.9L116.51 3.63965Z" fill="#407BFF"/>
<path d="M109.74 30.1796H96.1L95.71 28.3096H109.35L109.74 30.1796Z" fill="#407BFF"/>
<path opacity="0.4" d="M131.16 37.2295H104.51L104.9 39.0995H131.54L131.16 37.2295Z" fill="#407BFF"/>
<path opacity="0.4" d="M114.93 34.2598H103.89L104.28 36.1298H115.32L114.93 34.2598Z" fill="#407BFF"/>
<path opacity="0.4" d="M126.91 34.2598H115.87L116.26 36.1298H127.3L126.91 34.2598Z" fill="#407BFF"/>
<path opacity="0.4" d="M127.59 31.2803H103.27L103.66 33.1503H127.97L127.59 31.2803Z" fill="#407BFF"/>
<path opacity="0.4" d="M127.54 46.1602H106.37L106.76 48.0202H127.93L127.54 46.1602Z" fill="#407BFF"/>
<path opacity="0.4" d="M111.91 43.1797H105.75L106.14 45.0497H112.29L111.91 43.1797Z" fill="#407BFF"/>
<path opacity="0.4" d="M121.54 43.1797H112.75L113.14 45.0497H121.93L121.54 43.1797Z" fill="#407BFF"/>
<path opacity="0.4" d="M129.45 40.21H105.13L105.52 42.07H129.84L129.45 40.21Z" fill="#407BFF"/>
<path opacity="0.4" d="M148.6 39.7099H139.89L139.5 37.8398H148.22L148.6 39.7099Z" fill="#407BFF"/>
<path opacity="0.4" d="M163.1 39.7099H149.68L149.29 37.8398H162.71L163.1 39.7099Z" fill="#407BFF"/>
<path opacity="0.4" d="M168.8 42.6903H140.51L140.12 40.8203H168.41L168.8 42.6903Z" fill="#407BFF"/>
<path opacity="0.4" d="M165.04 45.66H141.13L140.74 43.79H164.65L165.04 45.66Z" fill="#407BFF"/>
<path opacity="0.4" d="M175.75 27.8799H148.66L149.05 29.7399H176.14L175.75 27.8799Z" fill="#407BFF"/>
<path opacity="0.4" d="M170.49 24.9004H148.04L148.43 26.7704H170.87L170.49 24.9004Z" fill="#407BFF"/>
<path d="M166.43 21.9297H141.71L142.1 23.7897H166.82L166.43 21.9297Z" fill="#407BFF"/>
<path opacity="0.4" d="M176.97 57.5596H143.61L144 59.4296H177.36L176.97 57.5596Z" fill="#407BFF"/>
<path opacity="0.4" d="M156.81 54.5898H142.99L143.38 56.4498H157.2L156.81 54.5898Z" fill="#407BFF"/>
<path opacity="0.4" d="M171.81 54.5898H157.99L158.38 56.4498H172.2L171.81 54.5898Z" fill="#407BFF"/>
<path opacity="0.4" d="M172.81 51.6104H142.37L142.76 53.4803H173.2L172.81 51.6104Z" fill="#407BFF"/>
<path opacity="0.4" d="M171.97 66.4795H145.47L145.86 68.3495H172.36L171.97 66.4795Z" fill="#407BFF"/>
<path opacity="0.4" d="M152.56 63.5098H144.85L145.24 65.3798H152.95L152.56 63.5098Z" fill="#407BFF"/>
<path opacity="0.4" d="M164.62 63.5098H153.62L154.01 65.3798H165.01L164.62 63.5098Z" fill="#407BFF"/>
<path opacity="0.4" d="M174.68 60.5303H144.23L144.62 62.4003H175.06L174.68 60.5303Z" fill="#407BFF"/>
<path opacity="0.4" d="M93.6 68.79H72.86L73.25 70.66H93.99L93.6 68.79Z" fill="#407BFF"/>
<path opacity="0.4" d="M87.47 65.8203H72.24L72.63 67.6803H87.85L87.47 65.8203Z" fill="#407BFF"/>
<path opacity="0.4" d="M103.76 65.8203H88.54L88.93 67.6803H104.16L103.76 65.8203Z" fill="#407BFF"/>
<path opacity="0.4" d="M102.07 62.8398H71.62L72.01 64.7099H102.45L102.07 62.8398Z" fill="#407BFF"/>
<path d="M334.95 124.66H322.11L323.61 144.09H333.45L334.95 124.66Z" fill="#407BFF"/>
<path opacity="0.4" d="M334.95 124.66H322.11L323.61 144.09H333.45L334.95 124.66Z" fill="white"/>
<path d="M55.13 111.17H73.59L67.29 144.09H48.83L55.13 111.17Z" fill="#263238"/>
<path d="M78.64 102.35H52.57L59.87 144.09H85.94L78.64 102.35Z" fill="#407BFF"/>
<path d="M51.03 102.35H52.57L59.87 144.09H58.33L51.03 102.35Z" fill="#407BFF"/>
<path opacity="0.3" d="M51.03 102.35H52.57L59.87 144.09H58.33L51.03 102.35Z" fill="black"/>
<path d="M63.62 139.62L57.88 106.81H74.9L80.63 139.62H63.62Z" fill="white"/>
<path opacity="0.6" d="M79.82 139.62L74.09 106.81H74.9L80.63 139.62H79.82Z" fill="#407BFF"/>
<path d="M207.77 48.9995C208.14 49.7995 208.02 50.6495 207.49 50.8895C206.96 51.1295 206.24 50.6795 205.87 49.8895C205.5 49.0995 205.63 48.2395 206.15 47.9995C206.67 47.7595 207.4 48.1595 207.77 48.9995Z" fill="#263238"/>
<path d="M208.09 50.5801C208.09 50.5801 208.41 56.0401 207.43 59.2001C209.43 59.8701 211.59 58.2001 211.59 58.2001L208.09 50.5801Z" fill="#FF5652"/>
<path d="M207.87 42.3895C207.785 42.4598 207.68 42.5017 207.57 42.5095C206.919 42.5267 206.282 42.6979 205.71 43.0091C205.138 43.3202 204.648 43.7625 204.28 44.2995C204.247 44.3611 204.202 44.4153 204.148 44.4592C204.094 44.503 204.031 44.5354 203.964 44.5545C203.897 44.5737 203.827 44.5792 203.758 44.5706C203.688 44.5621 203.622 44.5397 203.561 44.5048C203.501 44.4699 203.448 44.4232 203.406 44.3675C203.364 44.3118 203.334 44.2482 203.317 44.1806C203.3 44.1129 203.297 44.0425 203.308 43.9736C203.319 43.9048 203.343 43.8387 203.38 43.7795C203.833 43.0918 204.445 42.523 205.163 42.121C205.882 41.719 206.687 41.4956 207.51 41.4695C207.619 41.4635 207.728 41.4921 207.82 41.5513C207.912 41.6105 207.983 41.6973 208.023 41.7993C208.063 41.9012 208.07 42.0132 208.042 42.1192C208.015 42.2252 207.954 42.3198 207.87 42.3895Z" fill="#263238"/>
<path d="M237.22 47.7598C240.31 58.4598 243.76 66.7598 247.97 71.4998C247.97 71.4998 248.05 79.9098 233.72 83.9098C217.96 88.3098 224 78.1898 224 78.1898C232 73.7398 231.24 67.0198 225.22 64.4598L237.22 47.7598Z" fill="#FF8B7B"/>
<path d="M251.31 69.4495C251.03 65.5395 250.66 61.0796 248.25 60.9596C245.59 60.8396 230.19 67.7196 226.9 72.5696C223.61 77.4196 230.04 82.1695 230.04 82.1695L251.31 69.4495Z" fill="#263238"/>
<path d="M219.79 130L206.49 129.56L206.73 140.7C206.73 140.7 218.33 139.5 218.84 136.45L219.79 130Z" fill="#FF8B7B"/>
<path d="M199.46 135.03L198.06 140.73L206.73 140.71L206.49 129.57L199.46 135.03Z" fill="#FF8B7B"/>
<path d="M273.17 83.7096L272.89 86.5696C272.8 87.4896 272.68 88.3896 272.56 89.2996C272.33 91.1096 272.04 92.9196 271.73 94.7196C271.13 98.3296 270.35 101.92 269.45 105.53C268.535 109.209 267.427 112.837 266.13 116.4C265.44 118.23 264.72 120.06 263.86 121.92C262.993 123.871 261.991 125.759 260.86 127.57C260.59 128.04 260.25 128.57 259.92 129.01C259.59 129.45 259.27 130.01 258.92 130.47C258.57 130.93 258.2 131.47 257.74 131.94L257.09 132.68C256.857 132.953 256.61 133.213 256.35 133.46C254.346 135.423 251.996 136.999 249.42 138.11C245.468 139.805 241.273 140.868 236.99 141.26C235.04 141.49 233.11 141.58 231.22 141.63C229.33 141.68 227.44 141.63 225.58 141.53C223.72 141.43 221.88 141.27 220.05 141.05C218.22 140.83 216.44 140.54 214.5 140.15L214.82 129.7C221.205 128.583 227.517 127.08 233.72 125.2C235.1 124.751 236.455 124.23 237.78 123.64C238.908 123.164 239.987 122.577 241 121.89C241.589 121.535 242.089 121.049 242.46 120.47L242.75 120.01C242.884 119.813 243.008 119.61 243.12 119.4C243.263 119.17 243.393 118.933 243.51 118.69C243.64 118.43 243.78 118.19 243.91 117.9C245.085 115.335 246.051 112.68 246.8 109.96C247.62 107.02 248.39 103.96 249.01 100.79C249.63 97.6196 250.23 94.4196 250.78 91.1896L251.54 86.3296L252.23 81.5996L273.17 83.7096Z" fill="#407BFF"/>
<path opacity="0.2" d="M273.17 83.7096L272.89 86.5696C272.8 87.4896 272.68 88.3896 272.56 89.2996C272.33 91.1096 272.04 92.9196 271.73 94.7196C271.13 98.3296 270.35 101.92 269.45 105.53C268.535 109.209 267.427 112.837 266.13 116.4C265.44 118.23 264.72 120.06 263.86 121.92C262.993 123.871 261.991 125.759 260.86 127.57C260.59 128.04 260.25 128.57 259.92 129.01C259.59 129.45 259.27 130.01 258.92 130.47C258.57 130.93 258.2 131.47 257.74 131.94L257.09 132.68C256.857 132.953 256.61 133.213 256.35 133.46C254.346 135.423 251.996 136.999 249.42 138.11C245.468 139.805 241.273 140.868 236.99 141.26C235.04 141.49 233.11 141.58 231.22 141.63C229.33 141.68 227.44 141.63 225.58 141.53C223.72 141.43 221.88 141.27 220.05 141.05C218.22 140.83 216.44 140.54 214.5 140.15L214.82 129.7C221.205 128.583 227.517 127.08 233.72 125.2C235.1 124.751 236.455 124.23 237.78 123.64C238.908 123.164 239.987 122.577 241 121.89C241.589 121.535 242.089 121.049 242.46 120.47L242.75 120.01C242.884 119.813 243.008 119.61 243.12 119.4C243.263 119.17 243.393 118.933 243.51 118.69C243.64 118.43 243.78 118.19 243.91 117.9C245.085 115.335 246.051 112.68 246.8 109.96C247.62 107.02 248.39 103.96 249.01 100.79C249.63 97.6196 250.23 94.4196 250.78 91.1896L251.54 86.3296L252.23 81.5996L273.17 83.7096Z" fill="black"/>
<path d="M214.12 96.9998C219.078 118.378 221.869 140.202 222.45 162.14H281C281.32 154.91 280.1 114.14 274.21 84.6898C273.687 82.0224 272.636 79.4863 271.12 77.2306C269.603 74.9749 267.651 73.0451 265.377 71.5545C263.104 70.0639 260.556 69.0427 257.883 68.5507C255.21 68.0588 252.465 68.1061 249.81 68.6898L249.53 68.7598C242.22 70.4198 231.73 73.0998 225.53 75.4498L225.28 75.5498C221.134 77.162 217.715 80.2271 215.662 84.1738C213.608 88.1204 213.06 92.6791 214.12 96.9998Z" fill="#407BFF"/>
<path opacity="0.2" d="M217.93 115.7C218.39 118.51 218.86 121.49 219.29 124.61C224.08 119.61 225.6 104.29 225.6 104.29L217.93 115.7Z" fill="black"/>
<path d="M169.29 130.73L156 129.49L155.56 140.62C157.756 141.227 160.077 141.22 162.27 140.601C164.463 139.982 166.444 138.775 168 137.11L169.29 130.73Z" fill="#FF8B7B"/>
<path d="M149.68 132.77L145.42 140.42L155.6 140.62L156.04 129.49L149.68 132.77Z" fill="#FF8B7B"/>
<path d="M236.09 91.8701C235.17 93.6201 234.35 95.1701 233.43 96.7701C232.51 98.3701 231.63 99.9301 230.68 101.48C228.8 104.6 226.85 107.66 224.79 110.69C220.654 116.895 216.072 122.791 211.08 128.33C208.407 131.312 205.501 134.078 202.39 136.6C202 136.93 201.54 137.25 201.11 137.6C200.68 137.95 200.3 138.23 199.66 138.6C199.02 138.97 198.48 139.34 197.9 139.66C197.32 139.98 196.72 140.27 196.13 140.53C193.924 141.488 191.616 142.189 189.25 142.62C185.112 143.318 180.895 143.412 176.73 142.9C174.779 142.677 172.843 142.343 170.93 141.9C169.977 141.68 169.037 141.43 168.11 141.15C167.11 140.87 166.3 140.56 165.23 140.15L166.88 129.83C173.16 128.98 179.95 127.89 184.63 125.77C185.669 125.343 186.647 124.782 187.54 124.1C187.899 123.853 188.234 123.572 188.54 123.26C188.61 123.17 188.92 122.9 189.15 122.68C189.38 122.46 189.65 122.25 189.9 121.99C192.04 119.869 194.044 117.615 195.9 115.24C199.926 110.046 203.687 104.653 207.17 99.0801C208.97 96.2501 210.72 93.3701 212.47 90.4801L215.05 86.1401L217.54 81.8701L236.09 91.8701Z" fill="#407BFF"/>
<path d="M220.02 300.6H209.08L203.57 275.25H214.52L220.02 300.6Z" fill="#FF8B7B"/>
<path d="M208.47 298.26H220.77C220.984 298.268 221.189 298.343 221.357 298.477C221.524 298.61 221.645 298.793 221.7 299L223.86 308.74C223.911 308.976 223.909 309.222 223.852 309.457C223.795 309.692 223.685 309.912 223.531 310.098C223.377 310.285 223.182 310.434 222.962 310.535C222.742 310.636 222.502 310.685 222.26 310.68C217.97 310.61 215.88 310.36 210.47 310.36C207.14 310.36 202.87 310.7 198.28 310.7C193.69 310.7 193.08 306.16 194.96 305.75C203.4 303.9 203.96 301.36 206.69 298.93C207.179 298.493 207.814 298.254 208.47 298.26Z" fill="#263238"/>
<g opacity="0.2">
<path d="M214.53 275.26H203.57L206.63 289.3L217.37 288.33L214.53 275.26Z" fill="black"/>
</g>
<path d="M233.71 34.8997C237.71 45.0197 240.49 50.7497 237.85 58.0997C233.85 69.1497 219.66 70.2697 212.76 61.5297C206.56 53.6597 201.14 38.4297 208.97 30.0597C210.685 28.2041 212.846 26.818 215.247 26.0333C217.649 25.2485 220.211 25.0912 222.691 25.5763C225.17 26.0614 227.484 27.1727 229.413 28.8046C231.342 30.4365 232.821 32.5347 233.71 34.8997Z" fill="#FF8B7B"/>
<path d="M214.49 50.0598C212.85 52.2598 211.59 53.9298 211.59 53.9298C211.59 53.9298 208.22 45.5598 209.51 41.7198C207.87 38.4698 204.56 43.2598 203.31 36.9298C202.06 30.5998 207.47 23.7998 209.51 22.3898C209.72 23.1274 209.815 23.8932 209.79 24.6598C215.302 20.1864 222.308 17.9739 229.39 18.4698C228.798 19.3501 228.421 20.3572 228.29 21.4098C228.29 21.4098 240.16 23.4098 242.86 30.1298C241.905 29.6741 240.897 29.3382 239.86 29.1298C242.036 32.2497 242.898 36.1 242.26 39.8498C241.399 45.3184 240.951 50.844 240.92 56.3798C241.03 59.2198 233.24 64.6498 228.49 58.8498C223.74 53.0498 214.49 50.0598 214.49 50.0598Z" fill="#263238"/>
<path d="M219.44 47.8798C220.059 50.237 219.884 52.7327 218.94 54.9798C217.67 57.9798 215.06 57.2598 213.77 54.6398C212.6 52.2898 211.85 47.9298 213.92 45.8398C215.99 43.7498 218.66 45.0498 219.44 47.8798Z" fill="#FF8B7B"/>
<path d="M240 162.1C240 162.1 189.16 180.54 187.67 204.93C184.91 249.86 203.28 285.43 203.28 285.43L220.12 283.63C220.12 283.63 217.12 269.17 214.89 228.47C212.08 177.32 298.89 229.67 281.01 162.1H240Z" fill="#407BFF"/>
<path opacity="0.5" d="M240 162.1C240 162.1 189.16 180.54 187.67 204.93C184.91 249.86 203.28 285.43 203.28 285.43L220.12 283.63C220.12 283.63 217.12 269.17 214.89 228.47C212.08 177.32 298.89 229.67 281.01 162.1H240Z" fill="white"/>
<path d="M198.62 279.23C198.54 279.23 201.3 286.71 201.3 286.71L222.3 284.65L221.25 277.85L198.62 279.23Z" fill="#407BFF"/>
<path d="M172.73 301.85H161.78L158.58 276.49H169.53L172.73 301.85Z" fill="#FF8B7B"/>
<path d="M161.7 298.25H173.7C173.917 298.247 174.127 298.32 174.297 298.454C174.466 298.589 174.584 298.778 174.63 298.99L176.81 308.72C176.874 308.958 176.881 309.208 176.831 309.45C176.782 309.691 176.677 309.918 176.525 310.112C176.372 310.306 176.177 310.462 175.954 310.568C175.731 310.673 175.487 310.725 175.24 310.72C170.93 310.65 164.69 310.41 159.24 310.42C152.9 310.42 151.69 310.77 144.24 310.78C139.74 310.78 138.49 306.25 140.37 305.78C148.93 303.9 151.67 303.69 159.06 299.12C159.84 298.586 160.755 298.285 161.7 298.25Z" fill="#263238"/>
<path opacity="0.2" d="M158.59 276.5L160.33 290.31L171.19 289.57L169.54 276.5H158.59Z" fill="black"/>
<path d="M222.45 162.1C222.45 162.1 139.15 169.49 140.05 211.33C140.98 254.85 157.24 284.2 157.24 284.2H173.5C173.5 284.2 170.42 261.62 170.97 218.78C171.13 205.95 197.07 201.71 222.39 200.21C244.27 198.91 264.75 186.44 273.25 166.21L275 162.1H222.45Z" fill="#407BFF"/>
<path opacity="0.5" d="M222.45 162.1C222.45 162.1 139.15 169.49 140.05 211.33C140.98 254.85 157.24 284.2 157.24 284.2H173.5C173.5 284.2 170.42 261.62 170.97 218.78C171.13 205.95 197.07 201.71 222.39 200.21C244.27 198.91 264.75 186.44 273.25 166.21L275 162.1H222.45Z" fill="white"/>
<path d="M153.43 279.83C153.36 279.83 156.22 287.35 156.22 287.35L175.86 285.94L174.71 279.14L153.43 279.83Z" fill="#407BFF"/>
<path d="M244.32 115.08L233.75 155.81C231.047 166.244 229.683 176.981 229.69 187.76V206.69C229.69 211.47 233.21 215.35 237.56 215.35H291.74C296.09 215.35 299.61 211.47 299.61 206.69V187.76C299.606 176.98 300.974 166.244 303.68 155.81L313.01 119.81C314.45 114.28 310.67 108.81 305.44 108.81H251.88C250.102 108.866 248.394 109.512 247.025 110.648C245.655 111.783 244.704 113.343 244.32 115.08Z" fill="#263238"/>
<path d="M176.93 195.63L178.7 205.73C179.64 211.04 184.31 215.35 189.14 215.35H249.37C254.2 215.35 257.37 211.04 256.43 205.73L254.66 195.63C253.59 189.58 248.28 184.68 242.78 184.68H185C179.46 184.68 175.87 189.58 176.93 195.63Z" fill="#263238"/>
<path d="M255.17 225.49H223.62L220.54 215.35H258.25L255.17 225.49Z" fill="#407BFF"/>
<path d="M245.03 225.49H233.76V300.9H245.03V225.49Z" fill="#407BFF"/>
<path opacity="0.7" d="M245.03 300.9H233.76V227.3L245.03 228.45V300.9Z" fill="white"/>
<path opacity="0.7" d="M242.28 300.9H239.59V227.89L242.28 228.17V300.9Z" fill="white"/>
<path d="M265.31 312.56H213.47C213.168 312.557 212.874 312.459 212.63 312.28C212.387 312.101 212.206 311.85 212.113 311.563C212.02 311.275 212.02 310.966 212.113 310.678C212.206 310.39 212.387 310.139 212.63 309.96L220.85 303.96C224.802 301.066 229.572 299.504 234.47 299.5H244.32C249.215 299.505 253.981 301.067 257.93 303.96L266.16 309.96C266.404 310.14 266.585 310.392 266.678 310.68C266.771 310.969 266.77 311.279 266.675 311.567C266.581 311.856 266.399 312.107 266.153 312.285C265.908 312.463 265.613 312.559 265.31 312.56Z" fill="#407BFF"/>
</svg>
